{
	"nodes":[{
		"name":"Cylinder.3",
		"translation":[2.3282454013824465,
		84.9652099609375,
		24.15620231628418],
		"rotation":[0.0,
		0.0,
		0.0,
		-1.0],
		"scale":[1.0,
		1.0,
		1.0],
		"children":[1,
		2,
		3,
		4,
		5,
		6]
	},
	{
		"name":"Cylinder.3-Mat",
		"mesh":0
	},
	{
		"name":"Cylinder.3-Mat.3",
		"mesh":1
	},
	{
		"name":"Cylinder.3-Mat.2",
		"mesh":2
	},
	{
		"name":"Cylinder.3-Mat.1",
		"mesh":3
	},
	{
		"name":"Cylinder.3-Mat.1",
		"mesh":4
	},
	{
		"name":"Cylinder.3-Mat.3",
		"mesh":5
	}],
	"asset":{
		"version":"2.0",
		"generator":"Created using the official Cinema 4D glTF Exporter 1.000x284978"
	},
	"scenes":[{
		"nodes":[0]
	}],
	"meshes":[{
		"name":"Cylinder.3-Mat",
		"primitives":[{
			"attributes":{
				"POSITION":1,
				"NORMAL":2,
				"TEXCOORD_0":3
			},
			"indices":0,
			"material":0
		}]
	},
	{
		"name":"Cylinder.3-Mat.3",
		"primitives":[{
			"attributes":{
				"POSITION":5,
				"NORMAL":6,
				"TEXCOORD_0":7
			},
			"indices":4,
			"material":1
		}]
	},
	{
		"name":"Cylinder.3-Mat.2",
		"primitives":[{
			"attributes":{
				"POSITION":9,
				"NORMAL":10,
				"TEXCOORD_0":11
			},
			"indices":8,
			"material":2
		}]
	},
	{
		"name":"Cylinder.3-Mat.1",
		"primitives":[{
			"attributes":{
				"POSITION":13,
				"NORMAL":14,
				"TEXCOORD_0":15
			},
			"indices":12,
			"material":3
		}]
	},
	{
		"name":"Cylinder.3-Mat.1",
		"primitives":[{
			"attributes":{
				"POSITION":17,
				"NORMAL":18,
				"TEXCOORD_0":19
			},
			"indices":16,
			"material":3
		}]
	},
	{
		"name":"Cylinder.3-Mat.3",
		"primitives":[{
			"attributes":{
				"POSITION":21,
				"NORMAL":22,
				"TEXCOORD_0":23
			},
			"indices":20,
			"material":1
		}]
	}],
	"accessors":[{
		"bufferView":0,
		"type":"SCALAR",
		"componentType":5123,
		"count":5253,
		"byteOffset":0,
		"min":[0],
		"max":[1626]
	},
	{
		"bufferView":1,
		"type":"VEC3",
		"componentType":5126,
		"count":1627,
		"byteOffset":0,
		"min":[-50.34169387817383,
		-53.97758483886719,
		-152.4129180908203],
		"max":[45.685203552246097,
		150.50848388671876,
		170.24270629882813]
	},
	{
		"bufferView":1,
		"type":"VEC3",
		"componentType":5126,
		"count":1627,
		"byteOffset":12,
		"min":[-1.0,
		-0.9999063014984131,
		-1.0],
		"max":[1.0,
		0.9980313181877136,
		1.0]
	},
	{
		"bufferView":1,
		"type":"VEC2",
		"componentType":5126,
		"count":1627,
		"byteOffset":24,
		"min":[0.1047859936952591,
		0.13442420959472657],
		"max":[0.38072091341018679,
		0.39485716819763186]
	},
	{
		"bufferView":2,
		"type":"SCALAR",
		"componentType":5123,
		"count":4320,
		"byteOffset":0,
		"min":[0],
		"max":[1545]
	},
	{
		"bufferView":3,
		"type":"VEC3",
		"componentType":5126,
		"count":1546,
		"byteOffset":0,
		"min":[-25.909225463867189,
		-56.06325912475586,
		-128.67718505859376],
		"max":[31.810659408569337,
		92.92251586914063,
		153.05233764648438]
	},
	{
		"bufferView":3,
		"type":"VEC3",
		"componentType":5126,
		"count":1546,
		"byteOffset":12,
		"min":[-1.0,
		-1.0,
		-1.0],
		"max":[1.0,
		0.9999688267707825,
		1.0]
	},
	{
		"bufferView":3,
		"type":"VEC2",
		"componentType":5126,
		"count":1546,
		"byteOffset":24,
		"min":[0.0,
		0.0],
		"max":[1.0,
		1.0]
	},
	{
		"bufferView":4,
		"type":"SCALAR",
		"componentType":5123,
		"count":72,
		"byteOffset":0,
		"min":[0],
		"max":[47]
	},
	{
		"bufferView":5,
		"type":"VEC3",
		"componentType":5126,
		"count":48,
		"byteOffset":0,
		"min":[-33.760589599609378,
		42.90696716308594,
		81.17597961425781],
		"max":[38.41337203979492,
		129.23260498046876,
		153.34994506835938]
	},
	{
		"bufferView":5,
		"type":"VEC3",
		"componentType":5126,
		"count":48,
		"byteOffset":12,
		"min":[-1.0,
		-1.0,
		-1.0],
		"max":[1.0,
		1.0,
		1.0]
	},
	{
		"bufferView":5,
		"type":"VEC2",
		"componentType":5126,
		"count":48,
		"byteOffset":24,
		"min":[0.0,
		0.0],
		"max":[1.0,
		1.0]
	},
	{
		"bufferView":6,
		"type":"SCALAR",
		"componentType":5123,
		"count":432,
		"byteOffset":0,
		"min":[0],
		"max":[287]
	},
	{
		"bufferView":7,
		"type":"VEC3",
		"componentType":5126,
		"count":288,
		"byteOffset":0,
		"min":[-34.014469146728519,
		40.9113883972168,
		80.9220962524414],
		"max":[38.66725540161133,
		129.0306396484375,
		153.61314392089845]
	},
	{
		"bufferView":7,
		"type":"VEC3",
		"componentType":5126,
		"count":288,
		"byteOffset":12,
		"min":[-1.0,
		-1.0,
		-1.0],
		"max":[1.0,
		1.0,
		1.0]
	},
	{
		"bufferView":7,
		"type":"VEC2",
		"componentType":5126,
		"count":288,
		"byteOffset":24,
		"min":[0.0,
		0.0],
		"max":[1.0,
		1.0]
	},
	{
		"bufferView":8,
		"type":"SCALAR",
		"componentType":5123,
		"count":5424,
		"byteOffset":0,
		"min":[0],
		"max":[1200]
	},
	{
		"bufferView":9,
		"type":"VEC3",
		"componentType":5126,
		"count":1201,
		"byteOffset":0,
		"min":[-71.96077728271485,
		-83.84165954589844,
		-156.75994873046876],
		"max":[67.30428314208985,
		72.37531280517578,
		170.62066650390626]
	},
	{
		"bufferView":9,
		"type":"VEC3",
		"componentType":5126,
		"count":1201,
		"byteOffset":12,
		"min":[-1.0,
		-1.0,
		-1.0],
		"max":[1.0,
		0.9980313181877136,
		0.9997813105583191]
	},
	{
		"bufferView":9,
		"type":"VEC2",
		"componentType":5126,
		"count":1201,
		"byteOffset":24,
		"min":[0.0,
		0.0],
		"max":[1.0,
		1.0]
	},
	{
		"bufferView":10,
		"type":"SCALAR",
		"componentType":5123,
		"count":2805,
		"byteOffset":0,
		"min":[0],
		"max":[724]
	},
	{
		"bufferView":11,
		"type":"VEC3",
		"componentType":5126,
		"count":725,
		"byteOffset":0,
		"min":[-46.05551528930664,
		-72.06475830078125,
		-144.99490356445313],
		"max":[41.39902114868164,
		144.65878295898438,
		134.3689422607422]
	},
	{
		"bufferView":11,
		"type":"VEC3",
		"componentType":5126,
		"count":725,
		"byteOffset":12,
		"min":[-1.0,
		-1.0,
		-1.0],
		"max":[1.0,
		0.9962813258171082,
		0.9989063143730164]
	},
	{
		"bufferView":11,
		"type":"VEC2",
		"componentType":5126,
		"count":725,
		"byteOffset":24,
		"min":[0.0,
		0.0],
		"max":[1.0,
		1.0]
	}],
	"bufferViews":[{
		"buffer":0,
		"byteOffset":0,
		"byteLength":10506,
		"target":34963
	},
	{
		"buffer":0,
		"byteOffset":10508,
		"byteLength":52064,
		"target":34962,
		"byteStride":32
	},
	{
		"buffer":1,
		"byteOffset":0,
		"byteLength":8640,
		"target":34963
	},
	{
		"buffer":1,
		"byteOffset":8640,
		"byteLength":49472,
		"target":34962,
		"byteStride":32
	},
	{
		"buffer":2,
		"byteOffset":0,
		"byteLength":144,
		"target":34963
	},
	{
		"buffer":2,
		"byteOffset":144,
		"byteLength":1536,
		"target":34962,
		"byteStride":32
	},
	{
		"buffer":3,
		"byteOffset":0,
		"byteLength":864,
		"target":34963
	},
	{
		"buffer":3,
		"byteOffset":864,
		"byteLength":9216,
		"target":34962,
		"byteStride":32
	},
	{
		"buffer":4,
		"byteOffset":0,
		"byteLength":10848,
		"target":34963
	},
	{
		"buffer":4,
		"byteOffset":10848,
		"byteLength":38432,
		"target":34962,
		"byteStride":32
	},
	{
		"buffer":5,
		"byteOffset":0,
		"byteLength":5610,
		"target":34963
	},
	{
		"buffer":5,
		"byteOffset":5612,
		"byteLength":23200,
		"target":34962,
		"byteStride":32
	}],
	"buffers":[{
		"uri":"data:application/octet-stream;base64,",
		"byteLength":62572
	},
	{
		"uri":"data:application/octet-stream;base64,",
		"byteLength":58112
	},
	{
		"uri":"data:application/octet-stream;base64,",
		"byteLength":1680
	},
	{
		"uri":"data:application/octet-stream;base64,",
		"byteLength":10080
	},
	{
		"uri":"data:application/octet-stream;base64,",
		"byteLength":49280
	},
	{
		"uri":"data:application/octet-stream;base64,",
		"byteLength":28812
	}],
	"materials":[{
		"pbrMetallicRoughness":{
			"baseColorFactor":[1.0,
			0.38431372549019607,
			0.8274509803921569,
			1.0],
			"metallicFactor":1.0,
			"roughnessFactor":1.0
		},
		"emissiveFactor":[0.0,
		0.0,
		0.0],
		"alphaMode":"OPAQUE",
		"doubleSided":false,
		"name":"Mat"
	},
	{
		"pbrMetallicRoughness":{
			"baseColorFactor":[1.0,
			1.0,
			1.0,
			1.0],
			"metallicFactor":1.0,
			"roughnessFactor":1.0
		},
		"emissiveFactor":[0.0,
		0.0,
		0.0],
		"alphaMode":"OPAQUE",
		"doubleSided":false,
		"name":"Mat.3"
	},
	{
		"pbrMetallicRoughness":{
			"baseColorFactor":[0.8156862745098039,
			0.23921568627450988,
			0.5921568627450982,
			1.0],
			"metallicFactor":1.0,
			"roughnessFactor":1.0
		},
		"emissiveFactor":[0.0,
		0.0,
		0.0],
		"alphaMode":"OPAQUE",
		"doubleSided":false,
		"name":"Mat.2"
	},
	{
		"pbrMetallicRoughness":{
			"baseColorFactor":[0.12156862745098039,
			0.12156862745098039,
			0.12156862745098039,
			1.0],
			"metallicFactor":1.0,
			"roughnessFactor":1.0
		},
		"emissiveFactor":[0.0,
		0.0,
		0.0],
		"alphaMode":"OPAQUE",
		"doubleSided":false,
		"name":"Mat.1"
	}]
}